<mxfile host="app.diagrams.net" modified="2024-05-21T08:46:43.772Z" agent="Mozilla/5.0 (X11; Linux x86_64; rv:109.0) Gecko/20100101 Firefox/115.0" etag="K0OoYRajJm7ZyYDOwJ49" version="24.4.4" type="github">
  <diagram name="Page-1" id="2Uou_F8BfYmgxYzvLsnl">
    <mxGraphModel dx="444" dy="548" grid="1" gridSize="10" guides="1" tooltips="1" connect="1" arrows="1" fold="1" page="1" pageScale="1" pageWidth="850" pageHeight="1100" math="0" shadow="0">
      <root>
        <mxCell id="0" />
        <mxCell id="1" parent="0" />
        <mxCell id="8U7N2YHwYNH0AZ4LBX0D-1" value="" style="endArrow=none;html=1;rounded=0;strokeWidth=4;" edge="1" parent="1">
          <mxGeometry width="50" height="50" relative="1" as="geometry">
            <mxPoint x="80" y="170" as="sourcePoint" />
            <mxPoint x="170" y="170" as="targetPoint" />
            <Array as="points">
              <mxPoint x="170" y="170" />
              <mxPoint x="190" y="180" />
            </Array>
          </mxGeometry>
        </mxCell>
        <mxCell id="8U7N2YHwYNH0AZ4LBX0D-2" value="a" style="text;html=1;align=center;verticalAlign=middle;resizable=0;points=[];autosize=1;strokeColor=none;fillColor=none;strokeWidth=4;" vertex="1" parent="1">
          <mxGeometry x="75" y="138" width="30" height="30" as="geometry" />
        </mxCell>
        <mxCell id="8U7N2YHwYNH0AZ4LBX0D-6" value="" style="group" vertex="1" connectable="0" parent="1">
          <mxGeometry x="390" y="310" width="30" height="60" as="geometry" />
        </mxCell>
        <mxCell id="8U7N2YHwYNH0AZ4LBX0D-4" value="" style="endArrow=none;html=1;rounded=0;strokeWidth=4;" edge="1" parent="8U7N2YHwYNH0AZ4LBX0D-6">
          <mxGeometry width="50" height="50" relative="1" as="geometry">
            <mxPoint y="60" as="sourcePoint" />
            <mxPoint x="20" y="20" as="targetPoint" />
          </mxGeometry>
        </mxCell>
        <mxCell id="8U7N2YHwYNH0AZ4LBX0D-5" value="9" style="text;html=1;align=center;verticalAlign=middle;resizable=0;points=[];autosize=1;strokeColor=none;fillColor=none;" vertex="1" parent="8U7N2YHwYNH0AZ4LBX0D-6">
          <mxGeometry width="30" height="30" as="geometry" />
        </mxCell>
        <mxCell id="8U7N2YHwYNH0AZ4LBX0D-8" value="" style="group;strokeWidth=4;" vertex="1" connectable="0" parent="1">
          <mxGeometry x="120" y="130" width="30" height="60" as="geometry" />
        </mxCell>
        <mxCell id="8U7N2YHwYNH0AZ4LBX0D-9" value="" style="endArrow=none;html=1;rounded=0;strokeWidth=4;" edge="1" parent="8U7N2YHwYNH0AZ4LBX0D-8">
          <mxGeometry width="50" height="50" relative="1" as="geometry">
            <mxPoint y="60" as="sourcePoint" />
            <mxPoint x="20" y="20" as="targetPoint" />
          </mxGeometry>
        </mxCell>
        <mxCell id="8U7N2YHwYNH0AZ4LBX0D-10" value="8" style="text;html=1;align=center;verticalAlign=middle;resizable=0;points=[];autosize=1;strokeColor=none;fillColor=none;strokeWidth=4;" vertex="1" parent="8U7N2YHwYNH0AZ4LBX0D-8">
          <mxGeometry width="30" height="30" as="geometry" />
        </mxCell>
        <mxCell id="8U7N2YHwYNH0AZ4LBX0D-11" value="" style="endArrow=none;html=1;rounded=0;strokeWidth=4;" edge="1" parent="1">
          <mxGeometry width="50" height="50" relative="1" as="geometry">
            <mxPoint x="80" y="250" as="sourcePoint" />
            <mxPoint x="200" y="230" as="targetPoint" />
            <Array as="points">
              <mxPoint x="150" y="250" />
            </Array>
          </mxGeometry>
        </mxCell>
        <mxCell id="8U7N2YHwYNH0AZ4LBX0D-12" value="b" style="text;html=1;align=center;verticalAlign=middle;resizable=0;points=[];autosize=1;strokeColor=none;fillColor=none;strokeWidth=4;" vertex="1" parent="1">
          <mxGeometry x="80" y="218" width="30" height="30" as="geometry" />
        </mxCell>
        <mxCell id="8U7N2YHwYNH0AZ4LBX0D-13" value="" style="group;strokeWidth=4;" vertex="1" connectable="0" parent="1">
          <mxGeometry x="125" y="210" width="30" height="60" as="geometry" />
        </mxCell>
        <mxCell id="8U7N2YHwYNH0AZ4LBX0D-14" value="" style="endArrow=none;html=1;rounded=0;strokeWidth=4;" edge="1" parent="8U7N2YHwYNH0AZ4LBX0D-13">
          <mxGeometry width="50" height="50" relative="1" as="geometry">
            <mxPoint y="60" as="sourcePoint" />
            <mxPoint x="20" y="20" as="targetPoint" />
          </mxGeometry>
        </mxCell>
        <mxCell id="8U7N2YHwYNH0AZ4LBX0D-15" value="8" style="text;html=1;align=center;verticalAlign=middle;resizable=0;points=[];autosize=1;strokeColor=none;fillColor=none;strokeWidth=4;" vertex="1" parent="8U7N2YHwYNH0AZ4LBX0D-13">
          <mxGeometry width="30" height="30" as="geometry" />
        </mxCell>
        <mxCell id="8U7N2YHwYNH0AZ4LBX0D-16" value="" style="endArrow=none;html=1;rounded=0;strokeWidth=4;entryX=0;entryY=1;entryDx=0;entryDy=0;" edge="1" parent="1" source="8U7N2YHwYNH0AZ4LBX0D-35" target="8U7N2YHwYNH0AZ4LBX0D-38">
          <mxGeometry width="50" height="50" relative="1" as="geometry">
            <mxPoint x="85" y="350" as="sourcePoint" />
            <mxPoint x="420" y="350" as="targetPoint" />
            <Array as="points">
              <mxPoint x="410" y="350" />
            </Array>
          </mxGeometry>
        </mxCell>
        <mxCell id="8U7N2YHwYNH0AZ4LBX0D-17" value="c" style="text;html=1;align=center;verticalAlign=middle;resizable=0;points=[];autosize=1;strokeColor=none;fillColor=none;strokeWidth=4;" vertex="1" parent="1">
          <mxGeometry x="80" y="318" width="30" height="30" as="geometry" />
        </mxCell>
        <mxCell id="8U7N2YHwYNH0AZ4LBX0D-18" value="" style="group;strokeWidth=4;" vertex="1" connectable="0" parent="1">
          <mxGeometry x="125" y="310" width="30" height="60" as="geometry" />
        </mxCell>
        <mxCell id="8U7N2YHwYNH0AZ4LBX0D-19" value="" style="endArrow=none;html=1;rounded=0;strokeWidth=4;" edge="1" parent="8U7N2YHwYNH0AZ4LBX0D-18">
          <mxGeometry width="50" height="50" relative="1" as="geometry">
            <mxPoint y="60" as="sourcePoint" />
            <mxPoint x="20" y="20" as="targetPoint" />
          </mxGeometry>
        </mxCell>
        <mxCell id="8U7N2YHwYNH0AZ4LBX0D-20" value="8" style="text;html=1;align=center;verticalAlign=middle;resizable=0;points=[];autosize=1;strokeColor=none;fillColor=none;strokeWidth=4;" vertex="1" parent="8U7N2YHwYNH0AZ4LBX0D-18">
          <mxGeometry width="30" height="30" as="geometry" />
        </mxCell>
        <mxCell id="8U7N2YHwYNH0AZ4LBX0D-21" value="" style="endArrow=none;html=1;rounded=0;" edge="1" parent="1" source="8U7N2YHwYNH0AZ4LBX0D-54">
          <mxGeometry width="50" height="50" relative="1" as="geometry">
            <mxPoint x="80" y="440" as="sourcePoint" />
            <mxPoint x="840" y="440" as="targetPoint" />
          </mxGeometry>
        </mxCell>
        <mxCell id="8U7N2YHwYNH0AZ4LBX0D-22" value="" style="group" vertex="1" connectable="0" parent="1">
          <mxGeometry x="120" y="400" width="30" height="60" as="geometry" />
        </mxCell>
        <mxCell id="8U7N2YHwYNH0AZ4LBX0D-23" value="" style="endArrow=none;html=1;rounded=0;" edge="1" parent="8U7N2YHwYNH0AZ4LBX0D-22">
          <mxGeometry width="50" height="50" relative="1" as="geometry">
            <mxPoint y="60" as="sourcePoint" />
            <mxPoint x="20" y="20" as="targetPoint" />
          </mxGeometry>
        </mxCell>
        <mxCell id="8U7N2YHwYNH0AZ4LBX0D-24" value="1" style="text;html=1;align=center;verticalAlign=middle;resizable=0;points=[];autosize=1;strokeColor=none;fillColor=none;" vertex="1" parent="8U7N2YHwYNH0AZ4LBX0D-22">
          <mxGeometry width="30" height="30" as="geometry" />
        </mxCell>
        <mxCell id="8U7N2YHwYNH0AZ4LBX0D-40" style="edgeStyle=orthogonalEdgeStyle;rounded=0;orthogonalLoop=1;jettySize=auto;html=1;endArrow=none;endFill=0;entryX=0.313;entryY=0.038;entryDx=0;entryDy=0;entryPerimeter=0;strokeWidth=4;" edge="1" parent="1" source="8U7N2YHwYNH0AZ4LBX0D-26" target="8U7N2YHwYNH0AZ4LBX0D-38">
          <mxGeometry relative="1" as="geometry">
            <mxPoint x="430" y="208" as="targetPoint" />
            <Array as="points">
              <mxPoint x="455" y="210" />
            </Array>
          </mxGeometry>
        </mxCell>
        <mxCell id="8U7N2YHwYNH0AZ4LBX0D-26" value="&lt;font style=&quot;font-size: 20px;&quot;&gt;+&lt;br&gt;&lt;/font&gt;" style="ellipse;whiteSpace=wrap;html=1;aspect=fixed;strokeWidth=4;" vertex="1" parent="1">
          <mxGeometry x="180" y="168" width="80" height="80" as="geometry" />
        </mxCell>
        <mxCell id="8U7N2YHwYNH0AZ4LBX0D-29" value="" style="group;strokeWidth=4;perimeterSpacing=1;" vertex="1" connectable="0" parent="1">
          <mxGeometry x="390" y="168" width="30" height="60" as="geometry" />
        </mxCell>
        <mxCell id="8U7N2YHwYNH0AZ4LBX0D-30" value="" style="endArrow=none;html=1;rounded=0;strokeWidth=4;" edge="1" parent="8U7N2YHwYNH0AZ4LBX0D-29">
          <mxGeometry width="50" height="50" relative="1" as="geometry">
            <mxPoint y="60" as="sourcePoint" />
            <mxPoint x="20" y="20" as="targetPoint" />
          </mxGeometry>
        </mxCell>
        <mxCell id="8U7N2YHwYNH0AZ4LBX0D-31" value="9" style="text;html=1;align=center;verticalAlign=middle;resizable=0;points=[];autosize=1;strokeColor=none;fillColor=none;" vertex="1" parent="8U7N2YHwYNH0AZ4LBX0D-29">
          <mxGeometry width="30" height="30" as="geometry" />
        </mxCell>
        <mxCell id="8U7N2YHwYNH0AZ4LBX0D-33" value="r_ab" style="whiteSpace=wrap;html=1;strokeWidth=4;" vertex="1" parent="1">
          <mxGeometry x="290" y="198" width="80" height="20" as="geometry" />
        </mxCell>
        <mxCell id="8U7N2YHwYNH0AZ4LBX0D-36" value="" style="endArrow=none;html=1;rounded=0;strokeWidth=4;" edge="1" parent="1" target="8U7N2YHwYNH0AZ4LBX0D-35">
          <mxGeometry width="50" height="50" relative="1" as="geometry">
            <mxPoint x="80" y="350" as="sourcePoint" />
            <mxPoint x="420" y="350" as="targetPoint" />
          </mxGeometry>
        </mxCell>
        <mxCell id="8U7N2YHwYNH0AZ4LBX0D-35" value="r_c" style="whiteSpace=wrap;html=1;strokeWidth=4;" vertex="1" parent="1">
          <mxGeometry x="290" y="340" width="80" height="20" as="geometry" />
        </mxCell>
        <mxCell id="8U7N2YHwYNH0AZ4LBX0D-41" style="edgeStyle=orthogonalEdgeStyle;rounded=0;orthogonalLoop=1;jettySize=auto;html=1;endArrow=none;endFill=0;strokeWidth=4;entryX=0.75;entryY=1;entryDx=0;entryDy=0;" edge="1" parent="1" source="8U7N2YHwYNH0AZ4LBX0D-38" target="8U7N2YHwYNH0AZ4LBX0D-42">
          <mxGeometry relative="1" as="geometry">
            <mxPoint x="570" y="278" as="targetPoint" />
          </mxGeometry>
        </mxCell>
        <mxCell id="8U7N2YHwYNH0AZ4LBX0D-38" value="&lt;font style=&quot;font-size: 20px;&quot;&gt;+&lt;br&gt;&lt;/font&gt;" style="ellipse;whiteSpace=wrap;html=1;aspect=fixed;strokeWidth=4;" vertex="1" parent="1">
          <mxGeometry x="430" y="238" width="80" height="80" as="geometry" />
        </mxCell>
        <mxCell id="8U7N2YHwYNH0AZ4LBX0D-39" value="start" style="text;html=1;align=center;verticalAlign=middle;resizable=0;points=[];autosize=1;strokeColor=none;fillColor=none;" vertex="1" parent="1">
          <mxGeometry x="55" y="408" width="50" height="30" as="geometry" />
        </mxCell>
        <mxCell id="8U7N2YHwYNH0AZ4LBX0D-43" style="edgeStyle=orthogonalEdgeStyle;rounded=0;orthogonalLoop=1;jettySize=auto;html=1;exitX=0.25;exitY=1;exitDx=0;exitDy=0;strokeWidth=4;endArrow=none;endFill=0;" edge="1" parent="1" source="8U7N2YHwYNH0AZ4LBX0D-42">
          <mxGeometry relative="1" as="geometry">
            <mxPoint x="530" y="218" as="targetPoint" />
          </mxGeometry>
        </mxCell>
        <mxCell id="8U7N2YHwYNH0AZ4LBX0D-45" style="edgeStyle=orthogonalEdgeStyle;rounded=0;orthogonalLoop=1;jettySize=auto;html=1;exitX=1;exitY=0.5;exitDx=0;exitDy=0;endArrow=none;endFill=0;" edge="1" parent="1" source="8U7N2YHwYNH0AZ4LBX0D-42">
          <mxGeometry relative="1" as="geometry">
            <mxPoint x="650" y="440" as="targetPoint" />
          </mxGeometry>
        </mxCell>
        <mxCell id="8U7N2YHwYNH0AZ4LBX0D-60" style="edgeStyle=orthogonalEdgeStyle;rounded=0;orthogonalLoop=1;jettySize=auto;html=1;exitX=0.5;exitY=0;exitDx=0;exitDy=0;endArrow=none;endFill=0;strokeWidth=4;" edge="1" parent="1" source="8U7N2YHwYNH0AZ4LBX0D-42">
          <mxGeometry relative="1" as="geometry">
            <mxPoint x="840" y="248" as="targetPoint" />
          </mxGeometry>
        </mxCell>
        <mxCell id="8U7N2YHwYNH0AZ4LBX0D-42" value="" style="shape=trapezoid;perimeter=trapezoidPerimeter;whiteSpace=wrap;html=1;fixedSize=1;rotation=90;strokeWidth=4;" vertex="1" parent="1">
          <mxGeometry x="590" y="218" width="120" height="60" as="geometry" />
        </mxCell>
        <mxCell id="8U7N2YHwYNH0AZ4LBX0D-46" value="0" style="text;html=1;align=center;verticalAlign=middle;resizable=0;points=[];autosize=1;strokeColor=none;fillColor=none;" vertex="1" parent="1">
          <mxGeometry x="610" y="198" width="30" height="30" as="geometry" />
        </mxCell>
        <mxCell id="8U7N2YHwYNH0AZ4LBX0D-47" value="1" style="text;html=1;align=center;verticalAlign=middle;resizable=0;points=[];autosize=1;strokeColor=none;fillColor=none;" vertex="1" parent="1">
          <mxGeometry x="610" y="260" width="30" height="30" as="geometry" />
        </mxCell>
        <mxCell id="8U7N2YHwYNH0AZ4LBX0D-48" value="" style="group;strokeWidth=4;perimeterSpacing=1;" vertex="1" connectable="0" parent="1">
          <mxGeometry x="530" y="240" width="35" height="60" as="geometry" />
        </mxCell>
        <mxCell id="8U7N2YHwYNH0AZ4LBX0D-49" value="" style="endArrow=none;html=1;rounded=0;strokeWidth=4;" edge="1" parent="8U7N2YHwYNH0AZ4LBX0D-48">
          <mxGeometry width="50" height="50" relative="1" as="geometry">
            <mxPoint y="60" as="sourcePoint" />
            <mxPoint x="20" y="20" as="targetPoint" />
          </mxGeometry>
        </mxCell>
        <mxCell id="8U7N2YHwYNH0AZ4LBX0D-50" value="10" style="text;html=1;align=center;verticalAlign=middle;resizable=0;points=[];autosize=1;strokeColor=none;fillColor=none;" vertex="1" parent="8U7N2YHwYNH0AZ4LBX0D-48">
          <mxGeometry x="-5" width="40" height="30" as="geometry" />
        </mxCell>
        <mxCell id="8U7N2YHwYNH0AZ4LBX0D-51" value="Text" style="text;html=1;align=center;verticalAlign=middle;whiteSpace=wrap;rounded=0;" vertex="1" parent="1">
          <mxGeometry x="570" y="220" width="60" height="30" as="geometry" />
        </mxCell>
        <mxCell id="8U7N2YHwYNH0AZ4LBX0D-55" value="" style="endArrow=none;html=1;rounded=0;" edge="1" parent="1" target="8U7N2YHwYNH0AZ4LBX0D-54">
          <mxGeometry width="50" height="50" relative="1" as="geometry">
            <mxPoint x="80" y="440" as="sourcePoint" />
            <mxPoint x="790" y="440" as="targetPoint" />
          </mxGeometry>
        </mxCell>
        <mxCell id="8U7N2YHwYNH0AZ4LBX0D-52" value="(others =&amp;gt; 0)" style="text;html=1;align=center;verticalAlign=middle;whiteSpace=wrap;rounded=0;" vertex="1" parent="1">
          <mxGeometry x="490" y="180" width="100" height="30" as="geometry" />
        </mxCell>
        <mxCell id="8U7N2YHwYNH0AZ4LBX0D-54" value="result_valid" style="whiteSpace=wrap;html=1;strokeWidth=1;" vertex="1" parent="1">
          <mxGeometry x="710" y="430" width="80" height="20" as="geometry" />
        </mxCell>
        <mxCell id="8U7N2YHwYNH0AZ4LBX0D-56" value="result" style="whiteSpace=wrap;html=1;strokeWidth=1;" vertex="1" parent="1">
          <mxGeometry x="710" y="238" width="80" height="20" as="geometry" />
        </mxCell>
        <mxCell id="8U7N2YHwYNH0AZ4LBX0D-61" value="" style="swimlane;startSize=0;dashed=1;dashPattern=8 8;" vertex="1" parent="1">
          <mxGeometry x="110" y="130" width="710" height="340" as="geometry" />
        </mxCell>
        <mxCell id="8U7N2YHwYNH0AZ4LBX0D-62" value="" style="group;strokeWidth=4;perimeterSpacing=1;" vertex="1" connectable="0" parent="1">
          <mxGeometry x="790" y="210" width="35" height="60" as="geometry" />
        </mxCell>
        <mxCell id="8U7N2YHwYNH0AZ4LBX0D-63" value="" style="endArrow=none;html=1;rounded=0;strokeWidth=4;" edge="1" parent="8U7N2YHwYNH0AZ4LBX0D-62">
          <mxGeometry width="50" height="50" relative="1" as="geometry">
            <mxPoint y="60" as="sourcePoint" />
            <mxPoint x="20" y="20" as="targetPoint" />
          </mxGeometry>
        </mxCell>
        <mxCell id="8U7N2YHwYNH0AZ4LBX0D-64" value="10" style="text;html=1;align=center;verticalAlign=middle;resizable=0;points=[];autosize=1;strokeColor=none;fillColor=none;" vertex="1" parent="8U7N2YHwYNH0AZ4LBX0D-62">
          <mxGeometry x="-5" width="40" height="30" as="geometry" />
        </mxCell>
        <mxCell id="8U7N2YHwYNH0AZ4LBX0D-37" value="r_start" style="whiteSpace=wrap;html=1;strokeWidth=1;" vertex="1" parent="1">
          <mxGeometry x="290" y="430" width="80" height="20" as="geometry" />
        </mxCell>
        <mxCell id="8U7N2YHwYNH0AZ4LBX0D-69" value="" style="group;strokeWidth=4;perimeterSpacing=1;" vertex="1" connectable="0" parent="1">
          <mxGeometry x="790" y="400" width="35" height="60" as="geometry" />
        </mxCell>
        <mxCell id="8U7N2YHwYNH0AZ4LBX0D-70" value="" style="endArrow=none;html=1;rounded=0;strokeWidth=1;" edge="1" parent="8U7N2YHwYNH0AZ4LBX0D-69">
          <mxGeometry width="50" height="50" relative="1" as="geometry">
            <mxPoint y="60" as="sourcePoint" />
            <mxPoint x="20" y="20" as="targetPoint" />
          </mxGeometry>
        </mxCell>
        <mxCell id="8U7N2YHwYNH0AZ4LBX0D-71" value="1" style="text;html=1;align=center;verticalAlign=middle;resizable=0;points=[];autosize=1;strokeColor=none;fillColor=none;" vertex="1" parent="8U7N2YHwYNH0AZ4LBX0D-69">
          <mxGeometry width="30" height="30" as="geometry" />
        </mxCell>
      </root>
    </mxGraphModel>
  </diagram>
</mxfile>
